<svg width="682" height="273" viewBox="0 0 682 273" fill="none" xmlns="http://www.w3.org/2000/svg">
<path d="M84.315 16.091H165.948L158.64 43.3017H131.428L135.006 29.775H107.794L100.486 56.9857H127.698L124.12 70.5123H96.9097L82.2937 124.935H55.083L84.315 16.091Z" fill="black"/>
<path d="M94.6326 141.025H34.1006L71.9752 0H186.93L170.979 59.392H143.705L136.51 86.604H109.249L94.6326 141.025Z" fill="black"/>
<path d="M195.178 29.7746L187.87 56.9852H215.081L222.389 29.7746H195.178ZM142.466 124.935L167.968 29.7746H181.65L185.382 16.0906H239.649L235.917 29.7746H249.6L224.1 124.935H196.889L211.505 70.5132H184.293L169.678 124.935H142.466Z" fill="black"/>
<path d="M236.446 141.025H121.497L155.621 13.684H169.361L173.093 0H260.715L256.983 13.684H270.57L236.446 141.025Z" fill="black"/>
<path d="M241.825 97.724L263.749 16.0906H290.961L269.035 97.724H296.246L318.171 16.0906H345.382L323.458 97.724H309.774L306.198 111.252H292.67L288.938 124.935H261.727L265.459 111.252H251.931L255.509 97.724H241.825Z" fill="black"/>
<path d="M301.228 141.025H240.662L244.394 127.343H231.034L234.611 113.815H220.842L251.41 0H366.364L335.798 113.815H322.164L318.587 127.343H304.96L301.228 141.025Z" fill="black"/>
<path d="M356.422 16.091H438.056L430.746 43.3017H403.536L407.113 29.775H379.901L372.593 56.9857H399.804L396.228 70.5123H369.017L358.132 111.252H385.344L392.497 84.0403H419.708L408.824 124.935H327.189L356.422 16.091Z" fill="black"/>
<path d="M421.192 141.025H306.207L344.083 0H459.039L443.085 59.392H415.811L413.549 67.9507H440.641L421.192 141.025Z" fill="black"/>
<path d="M450.183 111.252H504.604L500.874 124.935H419.24L448.472 16.0905H475.683L450.183 111.252Z" fill="black"/>
<path d="M513.163 141.025H398.258L436.132 0H496.652L471.152 95.1613H525.671L513.163 141.025Z" fill="black"/>
<path d="M558.249 29.7746L550.941 56.9852H578.152L585.46 29.7746H558.249ZM505.537 124.935L531.038 29.7746H544.721L548.453 16.0906H602.72L598.988 29.7746H612.67L587.169 124.935H559.958L574.576 70.5132H547.365L532.748 124.935H505.537Z" fill="black"/>
<path d="M599.516 141.025H484.567L518.692 13.684H532.432L536.163 0H623.786L620.054 13.684H633.642L599.516 141.025Z" fill="black"/>
<path d="M34.6373 242.673H20.9546L42.7226 161.197H56.4066L60.1373 147.513H114.404L110.672 161.197H124.356L117.048 188.408H89.8359L97.1439 161.197H69.9333L48.1653 242.673H75.3759L86.2599 201.934H113.471L102.587 242.673H88.9039L85.1719 256.357H30.9053L34.6373 242.673Z" fill="black"/>
<path d="M97.4613 272.448H9.83866L13.5707 258.764H0L30.3667 145.106H44.116L47.848 131.422H135.471L131.739 145.106H145.337L134.396 185.844H134.425L114.943 258.764H101.193L97.4613 272.448Z" fill="black"/>
<path d="M167.114 242.673L188.884 161.197H161.672L139.904 242.673H167.114ZM126.221 242.673H112.693L134.461 161.197H147.989L151.721 147.513H206.142L202.412 161.197H216.094L194.325 242.673H180.642L176.91 256.357H122.489L126.221 242.673Z" fill="black"/>
<path d="M189.2 272.448H101.423L105.153 258.764H91.7388L122.105 145.106H135.7L139.431 131.422H227.209L223.477 145.106H237.048L206.681 258.764H192.932L189.2 272.448Z" fill="black"/>
<path d="M229.154 256.357H201.943L231.175 147.513H258.386L254.654 161.197H268.338L264.762 174.723H278.29L285.598 147.513H312.808L283.575 256.357H256.364L274.558 188.407H261.03L264.762 174.723H251.078L229.154 256.357Z" fill="black"/>
<path d="M295.915 272.448H180.96L218.836 131.422H333.791L295.915 272.448Z" fill="black"/>
<path d="M313.896 161.196L317.628 147.512H399.262L395.53 161.196H368.32L342.817 256.356H315.606L341.108 161.196H313.896Z" fill="black"/>
<path d="M355.163 272.448H294.635L320.137 177.286H292.83L305.338 131.422H420.329L407.821 177.286H380.666L355.163 272.448Z" fill="black"/>
<path d="M404.236 147.513H485.869L478.56 174.724H451.349L454.927 161.197H427.715L420.407 188.408H447.617L444.041 201.934H416.831L405.947 242.673H433.157L440.311 215.462H467.521L456.637 256.357H375.004L404.236 147.513Z" fill="black"/>
<path d="M469.006 272.448H354.023L391.896 131.422H506.852L490.899 190.814H463.624L461.363 199.372H488.455L469.006 272.448Z" fill="black"/>
<path d="M468.608 242.673L475.76 215.462H502.971L495.819 242.673H523.03L533.914 201.934H493.176L496.751 188.408H483.07L490.376 161.197H504.06L507.792 147.513H562.058L558.326 161.197H572.01L568.434 174.724H541.223L544.799 161.197H517.587L510.28 188.408H551.174L547.598 201.934H561.126L550.242 242.673H536.712L532.98 256.357H478.56L482.292 242.673H468.608Z" fill="black"/>
<path d="M545.271 272.448H457.494L461.226 258.764H447.743L463.354 199.372H463.465L478.037 145.106H491.77L495.502 131.422H583.124L579.392 145.106H592.906L580.824 190.814H580.751L562.596 258.764H549.003L545.271 272.448Z" fill="black"/>
<path d="M574.808 161.196L578.54 147.512H660.172L656.441 161.196H629.229L603.728 256.356H576.517L602.018 161.196H574.808Z" fill="black"/>
<path d="M616.075 272.448H555.547L581.048 177.286H553.741L566.249 131.422H681.239L668.731 177.286H641.576L616.075 272.448Z" fill="black"/>
<path d="M84.315 16.091H165.948L158.64 43.3017H131.428L135.006 29.775H107.794L100.486 56.9857H127.698L124.12 70.5123H96.9097L82.2937 124.935H55.083L84.315 16.091Z" fill="#F29100"/>
<path d="M195.178 29.7746L187.87 56.9852H215.081L222.389 29.7746H195.178ZM142.466 124.935L167.968 29.7746H181.65L185.382 16.0906H239.649L235.917 29.7746H249.6L224.1 124.935H196.889L211.505 70.5132H184.293L169.678 124.935H142.466Z" fill="#F29100"/>
<path d="M241.825 97.724L263.749 16.0906H290.961L269.035 97.724H296.246L318.171 16.0906H345.382L323.458 97.724H309.774L306.198 111.252H292.67L288.938 124.935H261.727L265.459 111.252H251.931L255.509 97.724H241.825Z" fill="#F29100"/>
<path d="M356.422 16.091H438.056L430.746 43.3017H403.536L407.113 29.775H379.901L372.593 56.9857H399.804L396.228 70.5123H369.017L358.132 111.252H385.344L392.497 84.0403H419.708L408.824 124.935H327.189L356.422 16.091Z" fill="#F29100"/>
<path d="M450.183 111.252H504.604L500.874 124.935H419.24L448.472 16.0905H475.683L450.183 111.252Z" fill="#F29100"/>
<path d="M558.249 29.7746L550.941 56.9852H578.152L585.46 29.7746H558.249ZM505.537 124.935L531.038 29.7746H544.721L548.453 16.0906H602.72L598.988 29.7746H612.67L587.169 124.935H559.958L574.576 70.5132H547.365L532.748 124.935H505.537Z" fill="#F29100"/>
<path d="M34.6373 242.673H20.9546L42.7226 161.197H56.4066L60.1373 147.513H114.404L110.672 161.197H124.356L117.048 188.408H89.8359L97.1439 161.197H69.9333L48.1653 242.673H75.3759L86.2599 201.934H113.471L102.587 242.673H88.9039L85.1719 256.357H30.9053L34.6373 242.673Z" fill="#F29100"/>
<path d="M167.114 242.673L188.884 161.197H161.672L139.904 242.673H167.114ZM126.221 242.673H112.693L134.461 161.197H147.989L151.721 147.513H206.142L202.412 161.197H216.094L194.325 242.673H180.642L176.91 256.357H122.489L126.221 242.673Z" fill="#F29100"/>
<path d="M229.154 256.357H201.943L231.175 147.513H258.386L254.654 161.197H268.338L264.762 174.723H278.29L285.598 147.513H312.808L283.575 256.357H256.364L274.558 188.407H261.03L264.762 174.723H251.078L229.154 256.357Z" fill="#F29100"/>
<path d="M313.896 161.196L317.628 147.512H399.262L395.53 161.196H368.32L342.817 256.356H315.606L341.108 161.196H313.896Z" fill="#F29100"/>
<path d="M404.236 147.513H485.869L478.56 174.724H451.349L454.927 161.197H427.715L420.407 188.408H447.617L444.041 201.934H416.831L405.947 242.673H433.157L440.311 215.462H467.521L456.637 256.357H375.004L404.236 147.513Z" fill="#F29100"/>
<path d="M468.608 242.673L475.76 215.462H502.971L495.819 242.673H523.03L533.914 201.934H493.176L496.751 188.408H483.07L490.376 161.197H504.06L507.792 147.513H562.058L558.326 161.197H572.01L568.434 174.724H541.223L544.799 161.197H517.587L510.28 188.408H551.174L547.598 201.934H561.126L550.242 242.673H536.712L532.98 256.357H478.56L482.292 242.673H468.608Z" fill="#F29100"/>
<path d="M574.808 161.196L578.54 147.512H660.172L656.441 161.196H629.229L603.728 256.356H576.517L602.018 161.196H574.808Z" fill="#F29100"/>
</svg>
